<svg viewBox="0 0 240 250" class="" aria-hidden="true" xmlns="http://www.w3.org/2000/svg"><ellipse cx="120" cy="224" rx="68" ry="12" fill="#153f32" opacity=".12"></ellipse><path d="M81 57Q37 93 58 164L42 211Q82 234 113 215 148 244 199 214L178 153Q196 77 150 54Z" fill="#3e787d"></path><path d="M90 130Q69 163 70 196L43 211Q69 227 99 212 134 241 184 218L151 146Z" fill="#69aeb2"></path><ellipse cx="120" cy="96" rx="35" ry="41" fill="#d6d8b5"></ellipse><path d="M78 87Q81 35 133 45 174 51 165 99L141 80 128 60 103 89Z" fill="#2e686d"></path><path d="M98 99L107 100M134 100L143 99" stroke="#2a5050" stroke-width="4" stroke-linecap="round"></path><path d="M112 120Q120 126 129 119" stroke="#768868" stroke-width="3" fill="none"></path><path d="M74 145L58 175 90 183M152 144L173 175 145 182" fill="none" stroke="#9ec5b7" stroke-width="16" stroke-linecap="round"></path><path d="M91 179L148 179M98 179V194M108 179V195M118 179V196M128 179V195M138 179V194" stroke="#e6c677" stroke-width="5" stroke-linecap="round"></path><path d="M88 213Q110 201 132 215T179 218" stroke="#b7e0d1" stroke-width="3" fill="none"></path><circle cx="47" cy="74" r="7" fill="none" stroke="#91c7c1" stroke-width="2"></circle><circle cx="187" cy="120" r="5" fill="none" stroke="#91c7c1" stroke-width="2"></circle></svg>